<?xml version="1.0" encoding="iso-8859-1"?>
<!-- Generator: Adobe Illustrator 19.0.0, SVG Export Plug-In . SVG Version: 6.00 Build 0)  -->
<svg version="1.1" id="Capa_1" xmlns="http://www.w3.org/2000/svg" xmlns:xlink="http://www.w3.org/1999/xlink" x="0px" y="0px"
	 viewBox="0 0 512 512" style="enable-background:new 0 0 512 512;" xml:space="preserve">
<rect x="52.966" y="176.552" style="fill:#DE4C3C;" width="406.069" height="335.448"/>
<rect x="52.966" y="176.552" style="fill:#C74436;" width="406.069" height="44.138"/>
<polygon style="fill:#DE4C3C;" points="17.655,97.104 17.655,176.552 141.242,176.552 370.759,176.552 494.345,176.552 
	494.345,97.104 "/>
<rect x="220.69" y="97.104" style="fill:#87CED9;" width="70.621" height="414.897"/>
<polygon style="fill:#6CBBC7;" points="220.69,158.897 158.897,273.656 141.242,238.345 97.104,247.173 185.38,97.104 
	220.69,97.104 "/>
<g>
	<path style="fill:#87CED9;" d="M132.414,35.311h1.854c4.326-0.018,8.501,1.554,11.741,4.414l65.854,57.379H256l-75.299-75.299
		C166.718,7.839,147.765,0,128,0c-26.818,0-48.552,21.734-48.552,48.552S101.182,97.104,128,97.104h30.897l-37.429-29.926
		c-7.857-5.782-9.534-16.834-3.752-24.682C121.141,37.836,126.632,35.152,132.414,35.311z"/>
	<path style="fill:#87CED9;" d="M384,0c-19.853-0.071-38.912,7.777-52.966,21.804L256,97.104h44.138l65.589-57.379
		c3.24-2.86,7.415-4.431,11.741-4.414h2.119c9.746-0.415,17.982,7.142,18.397,16.878c0.256,5.879-2.445,11.502-7.186,14.989
		l-37.694,29.926H384c26.818,0,48.552-21.734,48.552-48.552S410.818,0,384,0L384,0z"/>
</g>
<g>
	<polygon style="fill:#6CBBC7;" points="326.621,97.104 414.897,247.173 370.759,238.345 353.104,273.656 291.311,158.897 
		291.311,97.104 	"/>
	<path style="fill:#6CBBC7;" d="M220.69,512h70.621V323.443c-23.481,13.418-47.228,25.247-70.621,35.84V512z"/>
</g>
<g>
</g>
<g>
</g>
<g>
</g>
<g>
</g>
<g>
</g>
<g>
</g>
<g>
</g>
<g>
</g>
<g>
</g>
<g>
</g>
<g>
</g>
<g>
</g>
<g>
</g>
<g>
</g>
<g>
</g>
</svg>
